<?xml version="1.0" standalone="no"?>
<!DOCTYPE svg PUBLIC "-//W3C//DTD SVG 20010904//EN"
 "http://www.w3.org/TR/2001/REC-SVG-20010904/DTD/svg10.dtd">
<svg version="1.0" xmlns="http://www.w3.org/2000/svg"
 width="1200.000000pt" height="1200.000000pt" viewBox="0 0 1200.000000 1200.000000"
 preserveAspectRatio="xMidYMid meet">

<g transform="translate(0.000000,1200.000000) scale(0.100000,-0.100000)"
fill="#000000" stroke="none">
<path d="M0 6000 l0 -6000 6000 0 6000 0 0 6000 0 6000 -6000 0 -6000 0 0
-6000z m6145 2960 c327 -21 573 -76 921 -205 203 -76 474 -210 474 -235 0 -4
-55 -6 -122 -3 -331 14 -751 -103 -1283 -357 -177 -85 -235 -110 -251 -110 -8
0 -85 35 -172 79 -211 105 -404 187 -602 255 -314 108 -460 136 -716 136 -164
0 -165 4 -5 85 393 196 771 312 1131 345 220 20 418 23 625 10z m-2273 -938
c277 -97 507 -263 1078 -779 l54 -50 -130 -164 c-263 -331 -391 -508 -610
-839 -481 -732 -813 -1390 -920 -1825 -53 -218 -69 -432 -39 -531 8 -27 15
-53 15 -58 0 -21 -37 26 -115 143 -306 466 -456 900 -541 1566 -28 222 -14
442 56 860 67 400 277 897 536 1267 124 178 330 404 395 433 46 21 114 14 221
-23z m4303 -1 c29 -22 89 -80 134 -129 435 -474 747 -1175 801 -1797 13 -154
13 -606 0 -755 -21 -240 -93 -520 -215 -836 -70 -180 -228 -472 -353 -651 -58
-84 -67 -88 -56 -27 17 94 9 320 -15 439 -50 240 -125 448 -276 760 -313 650
-784 1390 -1277 2008 -66 81 -118 155 -116 162 2 8 68 73 148 145 472 429 706
592 983 685 138 47 176 46 242 -4z m-2210 -1711 c57 -39 174 -138 318 -270
171 -156 763 -754 911 -920 469 -527 795 -1040 896 -1410 28 -102 32 -252 8
-314 -75 -202 -737 -613 -1233 -765 -318 -98 -632 -141 -1020 -141 -319 0
-549 33 -855 122 -305 88 -607 229 -890 415 -208 137 -302 215 -361 300 -207
297 142 995 945 1893 339 379 987 989 1166 1099 46 28 63 27 115 -9z"/>
</g>
</svg>
